<?xml version="1.0" encoding="UTF-8"?>
<svg height="64" version="1.1" viewBox="0 0 64 64" width="64" xmlns="http://www.w3.org/2000/svg">
  <g transform="matrix(.60142 0 0 .6386 1.9951 -.96166)" stroke="#000" stroke-width="3.2279">
    <path d="m88.565 53.736c-0.078936-6.0865 0.16752-12.19-0.14189-18.264-0.82405-6.3311-7.1571-11.024-13.473-10.366-17.359 0.01062-34.719-0.02124-52.077 0.01594-6.7731 0.16445-12.326 6.6462-11.658 13.307v15.307h-9.5938v24.453h96.536v-24.453h-9.5929zm2.0996 16.998h-81.55v-9.5435h9.5938c0.06337-8.2716-0.12792-16.56 0.09775-24.821 0.51243-3.0074 3.742-4.182 6.464-3.8117 17.164 0.01646 34.329-0.03291 51.492 0.02467 3.1269 0.21689 4.75 3.4673 4.3086 6.2842v22.323h9.5938v9.5435z" fill="#333" stroke="#333" stroke-width="3.2272"/>
  </g>
</svg>
